<svg version="1" xmlns="http://www.w3.org/2000/svg" width="640" height="640" viewBox="0 0 480.000000 480.000000"><path d="M296.5 2c-2.7 3-1.2 3.4 1.5.5 1.3-1.4 1.9-2.5 1.3-2.5-.5 0-1.8.9-2.8 2zM463.4 2.5c2.7 1.3 5.8 2.6 6.9 2.9 1.2.3 1.7 1 1.4 1.9-.4 1 .2 1.4 2.1 1.4 1.5 0 3.6.3 4.7.7 1.9.7 1.9.7.3-.7-2.1-1.7-2.3-3.4-.5-4 .6-.2.9-.7.6-1.1-.3-.3-1.9 0-3.5.8-1.5.9-3.1 1.2-3.4.8-.3-.4-1.8-1.3-3.5-2.1-1.6-.7-3.8-1.7-4.7-2.2-1-.5-2.6-.9-3.5-.8-1 0 .4 1.1 3.1 2.4zM287 11.5c-3 3-5.2 5.5-4.8 5.5 1.1 0 12.3-10.9 11.3-11-.6 0-3.5 2.5-6.5 5.5zM462.3 14.7c-5.4 3.8-6.7 5.9-1.6 2.7 2.7-1.8 8-6.4 7.2-6.4-.2 0-2.8 1.7-5.6 3.7zM278.4 20.2l-1.9 2.3 2.3-1.9c2.1-1.8 2.7-2.6 1.9-2.6-.2 0-1.2 1-2.3 2.2zM201 20c.8.5 2 1 2.5 1 .6 0 .3-.5-.5-1s-1.9-1-2.5-1c-.5 0-.3.5.5 1zM452.9 21.7c-1.3 1.7-1.3 1.7.6.3 1.1-.8 2.2-1.6 2.4-1.7.2-.2 0-.3-.6-.3s-1.7.8-2.4 1.7zM442.4 29.6l-3.9 3.6 4-2.8c5.2-3.6 4.9-3.3 4.3-3.9-.2-.3-2.2 1.1-4.4 3.1zM267.4 31.2l-1.9 2.3 2.3-1.9c2.1-1.8 2.7-2.6 1.9-2.6-.2 0-1.2 1-2.3 2.2zM435 35c-.8.5-1.2 1.2-.9 1.5.4.3 1.2-.1 1.9-1 1.4-1.7 1.1-1.9-1-.5zM258.9 39c-2 1.6-2.1 1.9-.7 2 1 0 2.2-.9 2.8-2 1.3-2.5.8-2.5-2.1 0zM426.9 41.1c-2.3 1.9-2.3 2-.2 1 1.2-.6 2.5-1.6 2.8-2.1 1-1.6-.1-1.2-2.6 1.1zM264 42.3c0 .3 1.5 1 3.2 1.6 1.8.6 2.8.7 2.3.2-1.2-1-5.5-2.5-5.5-1.8zM279.8 48.7c.7.3 1.6.2 1.9-.1.4-.3-.2-.6-1.3-.5-1.1 0-1.4.3-.6.6zM414.4 50.2l-1.9 2.3 2.5-2c1.4-1.1 2.7-2.1 2.9-2.2.2-.2 0-.3-.6-.3-.5 0-1.8 1-2.9 2.2zM284.5 50c.3.5 1.1 1 1.6 1 .6 0 .7-.5.4-1-.3-.6-1.1-1-1.6-1-.6 0-.7.4-.4 1zM289 51.4c0 .2.7.7 1.6 1 .8.3 1.2.2.9-.4-.6-1-2.5-1.4-2.5-.6zM243 55.1c0 .5.5.7 1 .4.6-.3 1-.8 1-1.1 0-.2-.4-.4-1-.4-.5 0-1 .5-1 1.1zM249.5 57.3c-.9 1-1.3 2.6-1 3.6.3 1-.1 2.4-1 3.1-.8.7-1.5 1.8-1.5 2.4 0 .6-.4 1.7-.9 2.4-.7 1.2-1.2 1.2-3 0-1.9-1.1-2.4-1.1-3.5.4-1.9 2.5-3.3 2.2-4-.8-.7-2.7-3.1-2.8-3.1-.1 0 .9-1.8 2.6-3.9 3.6-2.1 1.1-4.5 2.9-5.3 4-.8 1.2-2 1.8-2.9 1.4-.8-.3-2.6.4-3.9 1.7-1.4 1.3-3.1 2-3.9 1.7-.9-.4-1.5-.3-1.4.1.1.4-.3 1.7-1 2.8-.6 1.2-.9 2.4-.5 2.7.8.9-1.7 3-5.9 4.9-2.3 1.1-4 2.7-4.3 4.1-.4 1.3-2.2 3.2-4.3 4.3-2 1-5.7 3.6-8.2 5.8-4.7 4-11.3 13.3-10.4 14.7.5.9-1.1 4.4-6.4 13.9-5.7 10.3-10.1 29.6-8.1 36 .6 2.2.7 2.3.8.4.1-2.6 2.6-4.8 4.2-3.9 1.4.9 3-1.5 2.4-3.6-.3-.9.6-3.9 2-6.7 1.4-2.7 2.8-6.5 3.1-8.4.4-1.8 1.1-3.8 1.6-4.4.4-.6.5-2 .1-2.9-.4-1.3-.3-1.6.5-1.1.7.4 1.2.1 1.2-.6 0-.8.9-2 1.9-2.8 1.1-.7 1.8-1.7 1.5-2.1-.2-.5.7-1.5 2-2.4 1.4-.9 2.8-2.5 3.1-3.5.8-2.5 11.4-13 13.1-13 .8 0 1.4-.5 1.4-1 0-.6.8-1 1.8-1s2.2-.4 2.7-.9c.6-.5 2.7-1.2 4.7-1.5 3.1-.6 3.9-.3 4.8 1.4.6 1.2 2.1 2 3.6 2s2.3.4 1.9 1.1c-.5.7.7 1 3.6.7 3.3-.2 4.3 0 4.1 1.1-.2 1 .5 1.2 2.8.8 2.2-.5 3-.3 3 .8 0 1.8 1.2 1.9 2.8.3.9-.9 1.2-.9 1.2 0 0 1.3 5.1 1.3 6.1 0 .3-.4 2.1-.3 4 .3 1.8.6 12.9 1.2 24.4 1.4l21 .4 6.3 3.3c8.9 4.6 12 9 16.5 22.8 5.6 17.8 5.8 19.1 5.6 35.2-.3 16.2-.6 17.2-5.5 15-1.3-.7-2.4-1.6-2.4-2.2 0-2-8.3-11.1-11.8-12.9-1.3-.7-3-1-3.7-.7-.8.3-1.7.1-2.1-.5-.3-.6-1.2-.8-1.9-.5-.7.2-3.3-.1-5.7-.8-5.7-1.7-18.5-.5-20.2 2-1.2 1.5-1.3 1.5-1.9 0-.8-2-3.1-2.1-4.7-.1-.7.8-2.1 1.5-3.1 1.5-2.4 0-4.9 2.7-4.2 4.6.4 1.2-.4 1.4-4.8 1.3-6.8-.2-9.9-1.4-9.9-3.6 0-1-.6-2.5-1.3-3.4-2.2-3-8.9-6.9-11.7-6.9-1.5 0-4.4-.7-6.4-1.5-3.6-1.5-6.6-2.1-17-3.2-3.9-.4-5.4-.1-7.7 1.6-1.5 1.2-3.8 2.1-5 2.1-1.2 0-2.3.8-2.6 2-.3 1.1-1.4 2-2.5 2-1 0-3.3.7-5.1 1.7-1.8.9-4.8 1.6-6.7 1.5-1.9 0-2.9.2-2.2.5 1.9.7 1.4 2.1-1 2.9-2.1.7-2.1.8 1 1.6 2 .5 3.2 1.5 3.2 2.6.1.9.7 0 1.5-2.1.7-2.1 1.6-4.1 1.9-4.4.3-.4 3.2-.8 6.4-.9 3.1-.1 4.4 0 2.9.3-2 .3-2.7.9-2.3 1.9.3.8.2 1.2-.3.9-.5-.3-1.3-.1-1.6.5-.4.6-.3 1 .2.9.4-.1 2.3.2 4.1.6 3.2.8 4 1.9 2.2 3-.5.3-1.6 2.7-2.4 5.3-.8 2.6-1.7 5.5-2.2 6.6-.6 1.7-.5 1.7 1.7.6 1.7-1 2.4-1 2.7-.1.3.8.8.9 1.7.1 1.7-1.4 4.3-.3 5 2.1.4 1 1 1.9 1.5 1.9.4 0 1.3 1.3 1.8 3 .8 2.2.8 2.9-.1 2.7-2.4-.4-1.1 2.7 1.3 3.4 4.2 1.2 8 1 8-.4 0-.7 1.4-1.2 3.8-1.2 2 .1 4-.3 4.3-.9.9-1.2 4.2.1 3.4 1.4-1.2 1.9 1.4 1 2.8-1 .8-1.1 1.7-1.7 2-1.3.4.3.7.1.7-.5 0-.7.8-1.2 1.8-1.2s2.8-.7 4-1.6c2.6-1.8 2.8-1.2.6 2.2-1.6 2.4-1.2 4.7.5 2.8 1.7-1.8 6.7-11.9 7.9-16.1.7-2.3 1.6-4.4 2-4.6.4-.3 3.7 0 7.5.6l6.7 1v3.8c0 2.1-.4 4-.9 4.3-1.4.9 0 8.9 1.9 10.8 1 .9 2.1 1.4 2.6 1 .4-.4.4.1.1 1.1-.4 1.1-.3 1.6.3 1.2.6-.3 1-.1 1 .4 0 .6.5 1.1 1.1 1.1 1.1 0 1-.7-.7-10-.3-1.4.4-.5 1.4 1.9 2.2 5.2 6.3 9.6 10.9 11.8 1.8.8 3.1 2 3 2.6-.2 1.4 10.8 1.6 13.8.3 1.1-.5 2.6-.8 3.3-.7.6.1 1.2-.7 1.2-1.8s.5-2.3 1.1-2.6c.6-.5.4-1.2-.8-2-1.7-1.3-1.7-1.4.1-3.4 2.2-2.4 4.6-2.8 4.6-.7 0 1.6 5.3 3.1 7 2.1.5-.3 1-2.6 1-5.1 0-3.7.4-4.6 2.3-5.3 1.2-.5 2.5-.7 3-.4.4.2.7-.8.7-2.2 0-2.2-.3-2.5-2.1-2-1.5.5-1.9.4-1.5-.4.9-1.4 5.1-1.4 7.7-.1 1.3.8 1.8 1.8 1.5 3.6-.3 1.3.2 4 .9 5.9.8 1.8 1.7 5.8 2 8.7 1.1 10.3 1.5 12 3.1 11.4 1-.4 1.4.3 1.6 2.2 0 1.5.4-.2.8-3.8.7-7.4.5-8.3-1.7-5.5-1.4 1.8-1.5 1.6-1-3.8.3-3.2 1.1-6.5 1.7-7.2 1.7-2 .3-5.5-2.6-6.6-2.4-.9-2.5-3.1-.1-2.8.7.1 2.2-.2 3.5-.6 1.7-.6 2.2-1.5 2.2-4.4 0-2 .9-8.6 2.1-14.6 1.2-6.5 1.9-12.9 1.6-15.5-1.2-10-2.8-18.3-3.9-20.3-.6-1.2-1.3-3.3-1.4-4.7-.7-6.5-9-24-14.4-30.4-5.3-6.2-10.7-13.4-12-16.1-.8-1.6-2.8-5.2-4.4-7.8-2.6-4.4-2.9-4.6-4.2-3-1.3 1.7-1.6 1.6-4.1-1.2-1.6-1.8-2.8-2.5-3-1.8-.5 1.4-8.3-5.6-8.3-7.5 0-.6-.7-1.2-1.5-1.2s-1.5-.4-1.5-.9c0-1.9-10.4-13.1-12.2-13.1-1 0-2.1-.7-2.4-1.5-.4-.8-1-1.2-1.5-.9-.6.3-1.6.1-2.2-.5-1.9-1.5-5.4-.9-7.2 1.2zm-15.7 16.9c-.3.7-1.1 1.3-1.8 1.3s-1.5-.6-1.7-1.3c-.3-.7.4-1.2 1.7-1.2 1.3 0 2 .5 1.8 1.2zM208.5 184c.4.7-.3.8-2.2.4-3.8-.9-4.2-1.4-1-1.4 1.4 0 2.9.5 3.2 1zm5.2.6c-.3.3-1.2.4-1.9.1-.8-.3-.5-.6.6-.6 1.1-.1 1.7.2 1.3.5zM230 188c1.8 1.2.2 1.2-2.5 0-1.3-.6-1.5-.9-.5-.9.8 0 2.2.4 3 .9zm5.5 2c.3.6-.1.7-.9.4-1.8-.7-2.1-1.4-.7-1.4.6 0 1.3.4 1.6 1zm4 1c.7 1.2-2.7 11-3.8 11-.5 0-.6-.8-.2-1.8.4-.9 1-3.6 1.2-6 .5-4.1 1.5-5.2 2.8-3.2zm-47.3 5.2c-.7.7-1.2.8-1.2.2 0-1.4 1.2-2.6 1.9-1.9.2.3-.1 1.1-.7 1.7zm8.8-.3c0 1 .9 3 2.1 4.5 1.9 2.4 1.9 2.7.3 3.3-2.3.9-6.8-2.1-7.2-4.8-.2-1.4.3-2.8 1.4-3.6 2.4-1.8 3.4-1.6 3.4.6zm17.4 3.4c-.4 8.4-.5 8.5-5.7 6.2-1-.4-2.3-.2-3.2.5-.8.7-1.5 1-1.5.7 0-.3-.2-1.2-.6-2-.3-1 .4-1.6 2.5-2 1.6-.4 3.8-1.7 4.8-3.1 2-2.8 3.8-2.9 3.7-.3zm88.3-1.7c-.3.3-1.2.4-1.9.1-.8-.3-.5-.6.6-.6 1.1-.1 1.7.2 1.3.5zm-12.4 12.6c-.2.5-1.3.8-2.4.8-2.4 0-2.5-2.6-.1-3.9 1.3-.7 1.9-.6 2.3.7.4.9.5 2 .2 2.4zm-36.6 0c-.3.8-.6.5-.6-.6-.1-1.1.2-1.7.5-1.3.3.3.4 1.2.1 1.9zm-46.7.8c0 .5-.4 1-1 1-.5 0-1-.5-1-1 0-.6.5-1 1-1 .6 0 1 .4 1 1zM305 57.4c0 .2.7.7 1.6 1 .8.3 1.2.2.9-.4-.6-1-2.5-1.4-2.5-.6zM317 61.4c0 .2.7.7 1.6 1 .8.3 1.2.2.9-.4-.6-1-2.5-1.4-2.5-.6zM395 64c-.8.5-1 1-.5 1 .6 0 1.7-.5 2.5-1s1.1-1 .5-1c-.5 0-1.7.5-2.5 1zM377 122c-2.8.6-5.4 1.9-6.7 3.5-2.8 3.1-2.8 3.7-.5 6.4 1.9 2.4 11.8 5.5 12.8 4 .3-.5 1.6-.9 3-.9 3.2 0 7.4-4.2 7.4-7.3 0-5-6.9-7.5-16-5.7z"/><path d="M163.6 172.6c-.5 1.4-.4 1.5.9.4 1.7-1.4 1.9-2 .6-2-.5 0-1.2.7-1.5 1.6zM162.7 191c-2.3 2.6-2.4 3.4-1.5 7.2 1.1 5.2 1.8 6.1 1.8 2.3 0-1.6 1.2-4.6 2.6-6.6 2.4-3.5 2.6-5.9.4-5.9-.4 0-1.9 1.3-3.3 3zM240.3 201.8c-1.3.8-5.6 10.3-4.9 10.9.4.5 3.5-3.9 5.6-7.9 1.4-3 1.2-4.1-.7-3zM153.9 209.8c-.1.9-.1 2.2 0 2.9.1.6-.3 1.4-.9 1.8-.5.3-1 2.1-1 3.8v3.2l2-3.3c2.9-4.8 3.6-8.8 1.6-9.5-1.1-.4-1.6-.1-1.7 1.1zM160.3 215.3l-.1 4.2.8-3.5c.5-1.9.6-3.8.2-4.2-.4-.4-.8 1.2-.9 3.5zM205.4 220.7c2 1 3.1 1.1 4 .4.7-.6 1.6-.8 1.9-.4.4.3.7.2.7-.3s-2.1-.9-4.6-1c-4.6-.1-4.6-.1-2 1.3zM0 226.4c0 2.8.4 3.5 2.7 4.1 3.3.8 5.3 3.3 4.8 6-.2 1.1-.7 4.5-.9 7.5-.3 3-.8 7.3-1 9.5-.6 4.9-1.4 14-2.2 22-.3 3.3-1.2 12.5-2 20.5-1.6 16.9-2 65.5-.4 66.5.6.3 1 1.2 1 1.8 0 .7-.4.6-1.1-.3-.8-1.2-.9-1-.7 1 .2 1.4.9 2.4 1.5 2.3.7-.2 1 .4.6 1.3-.3.9 0 2 .8 2.5 1.2.8 1.1 1.1-.3 2-1 .5-1.8 1.5-1.8 2.1 0 .7.4.7 1.3-.1 1.1-.8 1.6-.5 2.6 1.7 1 2.5 1 2.6-.4.8-1.5-1.9-1.5-1.9-1.5.2 0 1.2.4 2.2 1 2.2 1.5 0 .6 12-1 13-1.1.7-1 1.1.3 2.5 2 2 2.1 2.6.5 2.3-.8-.2-1.2.6-1 2.1.1 1.3-.6 3.3-1.5 4.4-1.7 2-1.7 2 .5 1.5 2.2-.6 3.1.5 1.2 1.7-.5.3-.6 1.3-.3 2.2.4 1.1.3 1.4-.5.9-.8-.4-1-.2-.6.8.5 1.3.8 1.3 2.2-.1 5.7-5 8.5-6.9 14.9-9.9 4-1.8 8.4-4.1 9.8-5 2.3-1.5 2.4-1.9 1.2-3.8-1.7-2.5-2.8-6.8-1.7-6.1.5.3.8-1.4.8-3.7-.1-2.4.2-5.7.5-7.3.4-1.7.9-4.4 1.3-6 .9-4.6 2.6-7.6 4.1-7.1.7.3 1.3.1 1.3-.4 0-.6-.5-1-1.2-1-.6 0-.3-.6.8-1.4 1-.8 2-2.5 2.1-3.8 1.3-12.3 3.4-21.1 5.6-23.5 1.6-1.8 2.3-1.9 13.1-.7 6.4.7 16.4 2.1 22.3 3.3 5.9 1.1 21.2 3.4 33.8 5.2 12.7 1.7 23.6 3.6 24.3 4.1.7.6 1.2 3.4 1.2 6.7 0 8.9-1.5 10.5-15.5 16.2-6.6 2.7-12.5 4.9-13.1 4.9-.6 0-3.1 1.1-5.6 2.4-2.5 1.3-5.9 2.7-7.6 3.1-1.8.3-3.8 1.2-4.5 1.9-.6.6-2.9 2.2-5 3.5-2 1.2-3.7 2.8-3.7 3.5 0 1.5-3.1 4.2-6 5.1-1.2.4-1.9.9-1.6 1.3.7.7-4.9 2.7-10.2 3.7-2 .4-4 1.2-4.4 1.8-.3.6-1.5 1.2-2.5 1.3-1 .1-3.8.8-6.3 1.4-7.2 1.9-15.2 2-17.9.3-1.9-1.2-2.1-1.7-1-2.4.8-.5.9-.9.3-.9-.6 0-1.4.3-1.8.7-.3.4-1.5.8-2.5 1-2.3.3-12.8 5.3-16 7.5-1.4 1-2.2 2.1-1.8 2.4.9.9-3 3.7-4.1 3-.4-.3-1.9 1.5-3.2 4C2.6 419 1.2 421 .8 421c-.5 0-.8 13.3-.8 29.5V480h211.6c168.9 0 211.5-.3 211.1-1.2-.2-.7-3-8.5-6.2-17.3-5.8-16.3-8-21.2-12-27.5-2.7-4.1-3.2-7.4-4.5-30.5-.5-9.4-1.9-30.5-3-47s-2.1-32.3-2.2-35l-.3-5 3 .3c1.7.1 7.7 1.1 13.5 2.2 25.1 4.6 51.2 9.1 51.4 8.8.1-.2.7-2.8 1.3-5.8.6-3 1.4-6.2 1.8-7.1.5-1.3-.4-1.9-4.7-2.9-2.9-.7-5.8-1.7-6.5-2.2-.7-.5-1.6-.7-2.1-.4-1.3.8-46.5-8.2-47.2-9.4-.3-.5-3-.9-6-.9s-6.7-.4-8.1-1c-1.5-.5-4.7-1.3-7-1.6-7.4-1.1-25.3-4.5-26.9-5.2-.8-.3-1.9-.5-2.4-.4-.4.1-2-.6-3.3-1.5-1.6-1-3.8-1.4-6.2-1.1-2 .2-5.6-.2-8.1-.9-2.5-.8-5.8-1.4-7.5-1.4-1.6 0-4.2-.6-5.7-1.4-1.5-.8-3.6-1.2-4.6-.9-2.1.5-4.4-1.8-2.4-2.5.7-.2 1.2-2.1 1.2-4.2s.5-4.2 1-4.5c.5-.3 1-1.7 1-3.1 0-1.8-.5-2.4-2.2-2.4-2.1 0-2.3.5-2.5 5.8-.1 5.1-2.1 13.1-4.2 17.2-.5.9-2.2 1.5-4.4 1.5-1.9 0-3.3-.3-3.1-.7.3-.4-.2-2.4-1.1-4.4l-1.5-3.7-2.1 2.7c-1.1 1.4-2.7 2.6-3.4 2.6-1.8 0-6.4 6-7 9-.6 3.3-1.1 3.4-4.1 1.1-1.4-1.1-3-1.8-3.5-1.5-.5.3-.9 0-.9-.6s.8-.9 1.8-.6c1.5.5 1.8 0 2-3.2 0-2 .7-6 1.5-8.7.7-2.8 1-6 .7-7.2-1.2-5-11.9-14.3-16.4-14.3-.7 0-2.5-1.4-4.1-3.1-2.4-2.8-2.7-3.7-2.1-7.7.5-3.5.2-5-1.1-6.4-1.7-1.9-6.8-2.5-7.8-.8s-2.5 1.1-2.5-1c0-1.1-.5-2-1.1-2-.5 0-.7-.5-.4-1 .9-1.5-.2-1.2-3 .6-1.4.9-2.2 2.1-1.8 2.7.4.6 0 .8-1 .4-1.3-.5-1.5.1-1.4 3.1l.2 3.7-4.2-.3c-2.6-.2-4.3.1-4.3.7s-.4 1.1-1 1.1c-.5 0-1-.6-1-1.3 0-1.4 4-3.7 6.5-3.7 2.1 0 1.8-1.6-.7-4-2.2-2.1-3.8-2.4-7.3-1.4-2.2.6-6 6.1-5.6 8.1.1.7-.3 1.3-.9 1.3-.5 0-1 .5-1 1.1 0 1.4-4.3 5.2-7.9 7-5.1 2.6-12.1 7.4-12.1 8.3 0 .5-.6 1.7-1.3 2.5-1.4 1.7-4.7 11.3-4.7 13.7 0 .8.5 1.4 1 1.4.6 0 1 .7 1 1.6 0 1.9 3.6 1 6.6-1.7 1.1-1.1 2.3-1.7 2.6-1.3.4.3 1.9-.1 3.5-.9 1.7-.9 3.5-1.2 4.3-.7 1.2.6 7.1 1.7 11.2 1.9.4.1 1.2 1 1.8 2 .8 1.6.4 2.2-2.5 4-1.9 1.1-3.5 2.7-3.5 3.5 0 1.9 3.8 4.6 6.5 4.6 1.1 0 3.1.6 4.5 1.3 2.1 1 10.2 1.3 21.4.7 3.6-.2 5.4-1.9 5.8-5.5.3-2.5-.1-4-1.3-5.1-2.1-1.9-2.2-6.9-.2-8.5 1-.9 1.8-.8 3.1.5 1 .9 2.3 1.6 2.9 1.6.6 0 2.3 1 3.8 2.1 1.5 1.2 4.1 2.5 5.8 2.8 2.5.5 3.3 1.2 3.5 3.4.2 1.5-.1 2.7-.7 2.7s-1.1.9-1.1 2-.7 2-1.5 2-1.5.3-1.4.7c.3 1.8-1.4 5.2-2.2 4.7-1.2-.7-3.9 5.5-3.2 7.3.7 1.7-2.4 2.8-4.1 1.4-1.1-.9-1.5-.8-2 .5-.9 2.4-.8 2.7 1 2 1-.4 1.4-.1 1.2.6-.3.8-1.8 1.2-4 1-2.9-.3-3.6.1-4.1 1.7-.3 1.4-1 1.9-2.1 1.5-.9-.3-2.3-.1-3 .6-1.8 1.4-5.6-.3-5.6-2.5 0-1.4-1.7-2-5-1.7-.8.1-3.9.4-6.9.7-3.3.3-5.9.1-6.7-.6-.8-.6-1.4-.8-1.4-.4s-.7.2-1.5-.5c-.9-.7-1.5-.8-1.5-.2 0 .5-.9.8-2 .5-1.1-.3-2-1.2-2-1.9 0-1-.7-1.3-2.5-.8-2.1.5-2.5.3-2.5-1.5 0-1.2-.5-2.1-1.1-2.1-.8 0-.8-.4 0-1.4 1.5-1.8-.2-6.4-2.6-7.3-2-.8-4.3-2.8-4.3-3.8 0-1.4-5.5-5.5-6.7-5.1-.7.3-1.3-.2-1.3-1.1 0-1.4-.2-1.4-2 .2-1.4 1.2-1.8 2.5-1.4 4.1.5 1.8.2 2.4-1 2.4-1.9 0-2.1 1.1-.3 2.9 1 1.1.8 1.3-1 .8-2.8-.6-3.1.9-.3 1.6 1.6.4 1.9 1.1 1.5 4-.3 2 0 3.9.5 4.2.5.3.6 1.3.3 2.2-.5 1.3-.2 1.5 1.6 1 1.7-.4 2.1-.2 1.7 1-.3.8-.6 1.6-.6 1.8 0 .3-1.9.9-4.1 1.5-3 .8-4.5.8-5.2.1-.6-.6-2.1-1.1-3.3-1.1h-2.2l2.4 4.7c1.3 2.7 2.4 5.6 2.4 6.5 0 1.8 3.3 4.2 4.4 3.1.3-.3.6 0 .6.7s.7 2.2 1.7 3.2c1.5 1.7 1.5 1.8 0 1.8-1 0-1.7.3-1.7.6 0 .9 6.4 8.4 7.3 8.4 1.2 0 5.6 5.3 5.7 6.9 0 .8.7 1.1 2 .8 1.1-.3 2.3-.1 2.6.4.3.5 1.4.9 2.5.9s1.9.6 1.8 1.2c-.4 2.3 1.3 4.8 3.2 4.8 2.1 0 2.5 2 .8 3.7-.6.6-.8 1.7-.3 2.5.6.9 1 .7 1.4-1 .5-2.3.5-2.3 2.6-.4 3 2.8 5.6 3.1 7.6.7 1.6-1.8 1.7-1.8 1.8-.3 0 2.3 6 2.6 6 .3 0-.8.5-1.5 1-1.5.6 0 1 .7 1 1.6 0 1.1.5 1.4 1.6 1 1.2-.4 1.5-.2 1.1.9-.4.8.1 1.9 1.1 2.4 1.6 1 1.5 1-.2 1.1-1.5 0-1.6.2-.6 1.5.7.9 2 1.5 2.9 1.4.9-.1 2.4.1 3.4.6 2.3 1 4.8-.1 5.4-2.5.6-2.2 1.9-2.6 2.5-.8.3.7 1.2.5 2.6-.8 1.5-1.3 2.2-3 2.2-5.5 0-2.8.8-4.4 3.2-6.7 1.7-1.7 3.5-2.9 3.9-2.6.4.2 1 0 1.4-.6.3-.6-.1-1.3-.9-1.6-2.9-1.1-1.7-2.3 1.8-1.7 2 .3 3.6.1 4.1-.6.5-.8-.1-1-1.9-.5-2.2.5-2.4.3-2.1-1.8.7-4.7 1.7-6.4 5.1-8.7 2.5-1.7 3.4-3.1 3.4-5.1 0-2.1.7-3.1 2.8-4.1 1.8-.8 3.5-2.8 4.5-5.1.9-2.1 2-3.8 2.4-3.8.5 0 .7 7.5.6 16.8-.1 20.1 0 18.9-1.5 17.4-3.4-3.4-3.3 2.5.2 6.8 5.8 7.2 8.5 15.7 9.5 29.5.7 10.4 1.5 15.7 2.6 17.1 1.6 1.9.3 9.9-2.5 15.7-1.4 3.1-3 5.7-3.5 5.9-.5.1-2.3 3.2-4 6.8-1.7 3.6-3.1 5.9-3.1 5.2 0-.6-.5-1.2-1.1-1.2-.6 0-.9.9-.6 1.9.6 2.2-1.8 6.1-3.7 6.1-.7 0-1.8 1.1-2.4 2.5-.6 1.4-1.8 2.5-2.7 2.5-.8 0-1.5.4-1.5 1 0 1.1-3.1 5-4.1 5-.3 0-1.9-1.2-3.5-2.6-1.6-1.4-9.2-7.9-16.9-14.4-13.5-11.4-33-30.4-33-32.2 0-.5-.6-1.3-1.4-1.7-.7-.5-1.1-1.4-.7-2 .5-.7.1-.8-1-.4-1.2.4-1.5.2-1.2-.8.3-.8 1.3-1.3 2.3-1.1 1 .2 1.4-.1 1-.7-.3-.6-1.2-1.1-2-1.1-.7 0-1.6-.6-1.8-1.3-.3-.6-.6-.2-.6 1-.1 1.3-.6 2.3-1.2 2.3s-.8-.8-.4-1.9c.3-1.1.1-2.2-.5-2.6-.6-.3-1 .3-1 1.4 0 1.2-.4 2.1-.9 2.1-1.5 0-2-2.7-.8-3.9.8-.8.8-1.1 0-1.1-.6 0-1.3.6-1.6 1.3-.3.8-1.1.3-2.5-1.3-2.4-2.8-2.7-4-1.2-4 .6 0 1 .7 1 1.6 0 .8.5 1.2 1 .9 1.7-1-1-3.7-3.1-3.2-1 .3-1.9.1-2.1-.3-.2-.4-5.5-6.3-11.9-13.1-16.2-17.3-18.6-20.1-23.5-27.1-3.9-5.6-4.1-6.3-2.8-8.3 2.4-3.7 5.6-13.8 6.1-19.5 1-11.5 1.9-10.3-8.2-11.6-4.9-.7-11.9-1.6-15.5-2-3.6-.3-6.7-.8-7-.9-.3-.2-4.1-.6-8.5-1-9.4-.8-16.4-2.2-18.2-3.6-.6-.6-5.2-1.2-10-1.4-4.8-.1-10.8-.7-13.3-1.3-7.2-1.7-38.7-7.7-45.5-8.7-15.2-2.1-14.5-1.8-14.5-7.5 0-2.7.5-8.2 1-12.2.6-4 1.9-14.7 3-23.7 1-9 2.2-16.6 2.5-16.9.7-.7 36.9 5.7 52.5 9.3 5.8 1.3 22 4.5 36 7s26.3 4.8 27.3 5.1c2 .6 2.1.3.5-3.1-.6-1.4-2.2-2.8-3.5-3.1-1.3-.4-2.3-1-2.3-1.4 0-.4-1.5-.8-3.2-.8-1.8 0-6.9-.7-11.3-1.6-4.4-.9-16.3-3.2-26.5-5.1-10.2-2-20.1-4-22-4.5-1.9-.5-6.8-1.4-10.8-2-4.4-.7-7.6-1.8-7.9-2.6-.3-.9-1-1.1-2.1-.5-1.9 1-8.9-.2-25.2-4.2-7.8-2-32.1-6.6-34.7-6.7-.2 0-.3 1.5-.3 3.4zm259 26.7c0 1.4-1.7 1.1-5.4-.9-2.7-1.5-3.2-2.2-2.4-3.5.8-1.6 1.2-1.5 4.4.9 1.8 1.5 3.4 3 3.4 3.5zm-3 17.8c0 1.4-2.3 1.9-4.1 1-.9-.5-2.6-.6-3.8-.4-1.1.2-2.1 0-2.1-.4s2.3-.9 5-1c2.8-.1 5 .3 5 .8zm-3 10.2c0 .5-1.1.9-2.5.9s-2.5-.4-2.5-.9 1.1-.9 2.5-.9 2.5.4 2.5.9zm-49.6 14.5c2.2.9 1 2.3-1.4 1.7-1.1-.3-1.7-.9-1.4-1.4.6-1.1.8-1.1 2.8-.3zm102.3 1.6c-.3.8-.6.5-.6-.6-.1-1.1.2-1.7.5-1.3.3.3.4 1.2.1 1.9zm76.9 27.2c.5.8 2 14.6 3.3 30.8 1.2 16.1 2.7 34 3.1 39.8 1.7 19.8 1.8 21 1 21-.5 0-2.1-1.1-3.7-2.4-1.5-1.3-4.3-3.2-6-4.2-1.8-1.1-7.9-4.9-13.5-8.5-9.2-5.9-25.9-14.9-31.3-16.9-6.4-2.4-27.7-13.6-28.4-14.9-.9-1.7-2.4-57.5-1.6-58.3 1.1-1 76 12.2 77.1 13.6z"/><path d="M155 229.1c0 .6-.7 1.7-1.5 2.5-.8.9-1.5 2.6-1.5 3.8 0 1.9.4 2.2 2.5 1.8 1.4-.2 2.5-1.2 2.6-2.1 0-.9.3-2.8.5-4.4.3-2 .1-2.7-1.1-2.7-.8 0-1.5.5-1.5 1.1zM284.5 231c.3.5.8 1 1.1 1 .2 0 .4-.5.4-1 0-.6-.5-1-1.1-1-.5 0-.7.4-.4 1zM322.3 239c-.9 5.5-.3 8.3 1.4 6.6.6-.6.6-11.7-.1-12.3-.2-.2-.8 2.4-1.3 5.7zM319.7 258c-.6 2.4.8 3.6 1.7 1.4.8-2.2.7-3.4-.3-3.4-.5 0-1.1.9-1.4 2zM317 264c0 1.1.5 2 1 2 .6 0 1-.9 1-2s-.4-2-1-2c-.5 0-1 .9-1 2zM180.3 282.4c-2.3 2.7-2.1 7.6.4 7.6 1.4 0 1.4.3.1 2.2-1.7 2.7-1.3 4.8.9 4.8 1 0 1.3-.6.9-1.6-.4-1.2 0-1.5 1.7-1.2 1.6.2 2.1.9 1.9 2.3-.2 1.1-.9 2.3-1.5 2.7-.6.4-.8 1-.4 1.4 1 1 3.4-1.4 4.1-4.1.3-1.3 1.5-2.9 2.6-3.5 1.5-.8 1.9-1.7 1.4-3.4-.3-1.3 0-3.4.6-4.7 1.1-2 1-2.1-1.1-1.6-1.3.3-3 .1-3.8-.6-1.1-.9-1.5-.9-1.8 0-.3.7-.9 1.3-1.5 1.3-.5 0-.6-.9-.3-2 .9-2.8-1.6-2.6-4.2.4zM304 288c0 .5.5 1 1.1 1 .5 0 .7-.5.4-1-.3-.6-.8-1-1.1-1-.2 0-.4.4-.4 1zM227 299.9c0 .5.5 1.3 1 1.6.6.3 1 .2 1-.4 0-.5-.4-1.3-1-1.6-.5-.3-1-.2-1 .4zM191.1 307.1c-1.4 4.2-1.4 6.2.2 5.7 1-.4 2.2-8.8 1.2-8.8-.2 0-.8 1.4-1.4 3.1zM182.8 313.7c.7.3 1.6.2 1.9-.1.4-.3-.2-.6-1.3-.5-1.1 0-1.4.3-.6.6zM189.5 334c.3.5.8 1 1.1 1 .2 0 .4-.5.4-1 0-.6-.5-1-1.1-1-.5 0-.7.4-.4 1zM469.4 348.7c.6 9.8 1.1 14.6 2.1 19.3.2 1.4.7 5 1 8 .3 3 1.4 10.2 2.5 16 2.3 13.3 3 18.4 3.5 26.7.9 13.9 1.5 6.7 1.5-18.1 0-23.7-.7-34.2-3.8-56.1-.7-4.8-.9-5-4.1-5.3l-3.4-.3.7 9.8zM211.8 360.7c.6.2 1.8.2 2.5 0 .6-.3.1-.5-1.3-.5-1.4 0-1.9.2-1.2.5zM237.5 372c.3.5 1 1 1.6 1 .5 0 .9-.5.9-1 0-.6-.7-1-1.6-1-.8 0-1.2.4-.9 1zM1.5 384c.3.5 1.1 1 1.6 1 .6 0 .7-.5.4-1-.3-.6-1.1-1-1.6-1-.6 0-.7.4-.4 1zM219.5 408c-.3.6.6 1.5 2.2 2.2 3.9 1.6 7.3 2 7.3 1 0-1.7-3-3.4-5-2.9-1.1.3-2 .1-2-.4 0-1.2-1.7-1.1-2.5.1zM230.3 411.5c0 .8.4 1.5.9 1.5.4 0 .8-.4.8-.9 0-.6-.4-1.2-.8-1.5-.5-.3-.9.1-.9.9zM234 410.9c0 .6.4 1.3 1 1.6.6.3.7-.1.4-.9-.7-1.8-1.4-2.1-1.4-.7zM240.8 411.7c.6.2 1.8.2 2.5 0 .6-.3.1-.5-1.3-.5-1.4 0-1.9.2-1.2.5z"/></svg>